<svg xmlns="http://www.w3.org/2000/svg" viewBox="0 0 1200 545" role="img" aria-labelledby="title desc">
<title id="title">Stopped convex-readout run: all nine reported certificate gaps</title>
<desc id="desc">Producer-reported values, not independently numerically audited. Dashed line is the fixed one times ten to the minus eight threshold. Three pass and six fail.</desc>
<rect width="100%" height="100%" fill="white"/>
<g font-family="Arial,sans-serif" fill="#17212b">
<text x="28" y="30" font-size="20" font-weight="bold">Stopped before DEV: 3 of 9 certificate checks passed</text>
<text x="28" y="55" font-size="13">SLSQP success was insufficient. These are producer-reported values, not a numerical audit.</text>
<line x1="260.00" y1="75" x2="260.00" y2="429" stroke="#e3e7eb"/>
<text x="260.00" y="453" font-size="12" text-anchor="middle">1e-18</text>
<line x1="306.25" y1="75" x2="306.25" y2="429" stroke="#e3e7eb"/>
<text x="306.25" y="453" font-size="12" text-anchor="middle">1e-17</text>
<line x1="352.50" y1="75" x2="352.50" y2="429" stroke="#e3e7eb"/>
<text x="352.50" y="453" font-size="12" text-anchor="middle">1e-16</text>
<line x1="398.75" y1="75" x2="398.75" y2="429" stroke="#e3e7eb"/>
<text x="398.75" y="453" font-size="12" text-anchor="middle">1e-15</text>
<line x1="445.00" y1="75" x2="445.00" y2="429" stroke="#e3e7eb"/>
<text x="445.00" y="453" font-size="12" text-anchor="middle">1e-14</text>
<line x1="491.25" y1="75" x2="491.25" y2="429" stroke="#e3e7eb"/>
<text x="491.25" y="453" font-size="12" text-anchor="middle">1e-13</text>
<line x1="537.50" y1="75" x2="537.50" y2="429" stroke="#e3e7eb"/>
<text x="537.50" y="453" font-size="12" text-anchor="middle">1e-12</text>
<line x1="583.75" y1="75" x2="583.75" y2="429" stroke="#e3e7eb"/>
<text x="583.75" y="453" font-size="12" text-anchor="middle">1e-11</text>
<line x1="630.00" y1="75" x2="630.00" y2="429" stroke="#e3e7eb"/>
<text x="630.00" y="453" font-size="12" text-anchor="middle">1e-10</text>
<line x1="676.25" y1="75" x2="676.25" y2="429" stroke="#e3e7eb"/>
<text x="676.25" y="453" font-size="12" text-anchor="middle">1e-9</text>
<line x1="722.50" y1="75" x2="722.50" y2="429" stroke="#e3e7eb"/>
<text x="722.50" y="453" font-size="12" text-anchor="middle">1e-8</text>
<line x1="768.75" y1="75" x2="768.75" y2="429" stroke="#e3e7eb"/>
<text x="768.75" y="453" font-size="12" text-anchor="middle">1e-7</text>
<line x1="815.00" y1="75" x2="815.00" y2="429" stroke="#e3e7eb"/>
<text x="815.00" y="453" font-size="12" text-anchor="middle">1e-6</text>
<line x1="722.50" y1="73" x2="722.50" y2="431" stroke="#333" stroke-dasharray="5 4"/>
<text x="245" y="95" font-size="13" text-anchor="end">factorized | 426261001</text>
<line x1="260" y1="90" x2="260.00" y2="90" stroke="#247b52" stroke-width="7"/>
<circle cx="260.00" cy="90" r="4" fill="#247b52"/>
<text x="835" y="95" font-size="12" fill="#247b52">0 | PASS</text>
<text x="245" y="134" font-size="13" text-anchor="end">matched_free | 426261001</text>
<line x1="260" y1="129" x2="699.91" y2="129" stroke="#247b52" stroke-width="7"/>
<circle cx="699.91" cy="129" r="4" fill="#247b52"/>
<text x="835" y="134" font-size="12" fill="#247b52">3.2477804369490659e-09 | PASS</text>
<text x="245" y="173" font-size="13" text-anchor="end">dense_free | 426261001</text>
<line x1="260" y1="168" x2="771.10" y2="168" stroke="#b53f33" stroke-width="7"/>
<circle cx="771.10" cy="168" r="4" fill="#b53f33"/>
<text x="835" y="173" font-size="12" fill="#b53f33">1.124199828471395e-07 | FAIL</text>
<text x="245" y="212" font-size="13" text-anchor="end">matched_free | 426261002</text>
<line x1="260" y1="207" x2="312.83" y2="207" stroke="#247b52" stroke-width="7"/>
<circle cx="312.83" cy="207" r="4" fill="#247b52"/>
<text x="835" y="212" font-size="12" fill="#247b52">1.3877787807814457e-17 | PASS</text>
<text x="245" y="251" font-size="13" text-anchor="end">dense_free | 426261002</text>
<line x1="260" y1="246" x2="781.67" y2="246" stroke="#b53f33" stroke-width="7"/>
<circle cx="781.67" cy="246" r="4" fill="#b53f33"/>
<text x="835" y="251" font-size="12" fill="#b53f33">1.9029183625368651e-07 | FAIL</text>
<text x="245" y="290" font-size="13" text-anchor="end">factorized | 426261002</text>
<line x1="260" y1="285" x2="799.81" y2="285" stroke="#b53f33" stroke-width="7"/>
<circle cx="799.81" cy="285" r="4" fill="#b53f33"/>
<text x="835" y="290" font-size="12" fill="#b53f33">4.6952833891895918e-07 | FAIL</text>
<text x="245" y="329" font-size="13" text-anchor="end">dense_free | 426261003</text>
<line x1="260" y1="324" x2="780.29" y2="324" stroke="#b53f33" stroke-width="7"/>
<circle cx="780.29" cy="324" r="4" fill="#b53f33"/>
<text x="835" y="329" font-size="12" fill="#b53f33">1.7763159673722662e-07 | FAIL</text>
<text x="245" y="368" font-size="13" text-anchor="end">factorized | 426261003</text>
<line x1="260" y1="363" x2="793.74" y2="363" stroke="#b53f33" stroke-width="7"/>
<circle cx="793.74" cy="363" r="4" fill="#b53f33"/>
<text x="835" y="368" font-size="12" fill="#b53f33">3.4693648569977809e-07 | FAIL</text>
<text x="245" y="407" font-size="13" text-anchor="end">matched_free | 426261003</text>
<line x1="260" y1="402" x2="784.69" y2="402" stroke="#b53f33" stroke-width="7"/>
<circle cx="784.69" cy="402" r="4" fill="#b53f33"/>
<text x="835" y="407" font-size="12" fill="#b53f33">2.2111157905319034e-07 | FAIL</text>
<text x="538" y="490" font-size="12" text-anchor="middle">Reported Frank-Wolfe gap (log scale); fixed threshold 1e-8</text>
<text x="28" y="514" font-size="12">Nonpositive gaps are plotted at 1e-18 only; labels and CSV retain the reported value, including zero.</text>
<text x="28" y="536" font-size="12">No retries. No DEV generation or independent scientific audit. All nine outputs retained.</text>
</g></svg>
