<svg xmlns="http://www.w3.org/2000/svg" width="1260" height="1180" viewBox="0 0 1260 1180" role="img">
<title>Fixed-architecture target comparison</title><rect width="1260" height="1180" fill="#fff"/>
<g font-family="sans-serif" fill="#172431">
<text x="30" y="35" font-size="25">Same MLP architecture, different continuation targets</text>
<text x="30" y="64" font-size="17">FAIL: 19/42 conditions passed | 1,440 episodes | all three fit seeds retained</text>
<text x="30" y="110" font-size="18">lambda3: training-supported setting</text>
<text x="30" y="137" font-size="14">Weighted success (%)</text>
<text x="30" y="161" font-size="12">Bellman 10101</text>
<rect x="155" y="150" width="106.462" height="13" fill="#7550a3"/>
<text x="352" y="161" font-size="12">56</text>
<text x="30" y="186" font-size="12">Bellman 10102</text>
<rect x="155" y="175" width="129.260" height="13" fill="#7550a3"/>
<text x="352" y="186" font-size="12">68</text>
<text x="30" y="211" font-size="12">Bellman 10103</text>
<rect x="155" y="200" width="130.791" height="13" fill="#7550a3"/>
<text x="352" y="211" font-size="12">68.8</text>
<text x="30" y="236" font-size="12">Monte Carlo 10101</text>
<rect x="155" y="225" width="87.781" height="13" fill="#286caa"/>
<text x="352" y="236" font-size="12">46.2</text>
<text x="30" y="261" font-size="12">Monte Carlo 10102</text>
<rect x="155" y="250" width="104.456" height="13" fill="#286caa"/>
<text x="352" y="261" font-size="12">55</text>
<text x="30" y="286" font-size="12">Monte Carlo 10103</text>
<rect x="155" y="275" width="94.587" height="13" fill="#286caa"/>
<text x="352" y="286" font-size="12">49.8</text>
<text x="30" y="311" font-size="12">Unchanged 10101</text>
<rect x="155" y="300" width="115.957" height="13" fill="#677583"/>
<text x="352" y="311" font-size="12">61</text>
<text x="30" y="336" font-size="12">Unchanged 10102</text>
<rect x="155" y="325" width="116.331" height="13" fill="#677583"/>
<text x="352" y="336" font-size="12">61.2</text>
<text x="30" y="361" font-size="12">Unchanged 10103</text>
<rect x="155" y="350" width="103.980" height="13" fill="#677583"/>
<text x="352" y="361" font-size="12">54.7</text>
<text x="30" y="386" font-size="12">Analytic</text>
<rect x="155" y="375" width="190.000" height="13" fill="#087f6d"/>
<text x="352" y="386" font-size="12">100</text>
<line x1="155" x2="345" y1="402" y2="402" stroke="#87939f"/>
<text x="155" y="419" font-size="11">0</text>
<text x="345" y="419" font-size="11">100</text>
<text x="440" y="137" font-size="14">Capped moves (lower is better)</text>
<text x="440" y="161" font-size="12">Bellman 10101</text>
<rect x="565" y="150" width="88.210" height="13" fill="#7550a3"/>
<text x="762" y="161" font-size="12">979</text>
<text x="440" y="186" font-size="12">Bellman 10102</text>
<rect x="565" y="175" width="65.512" height="13" fill="#7550a3"/>
<text x="762" y="186" font-size="12">727</text>
<text x="440" y="211" font-size="12">Bellman 10103</text>
<rect x="565" y="200" width="64.511" height="13" fill="#7550a3"/>
<text x="762" y="211" font-size="12">716</text>
<text x="440" y="236" font-size="12">Monte Carlo 10101</text>
<rect x="565" y="225" width="106.968" height="13" fill="#286caa"/>
<text x="762" y="236" font-size="12">1.19e+03</text>
<text x="440" y="261" font-size="12">Monte Carlo 10102</text>
<rect x="565" y="250" width="91.783" height="13" fill="#286caa"/>
<text x="762" y="261" font-size="12">1.02e+03</text>
<text x="440" y="286" font-size="12">Monte Carlo 10103</text>
<rect x="565" y="275" width="101.572" height="13" fill="#286caa"/>
<text x="762" y="286" font-size="12">1.13e+03</text>
<text x="440" y="311" font-size="12">Unchanged 10101</text>
<rect x="565" y="300" width="80.036" height="13" fill="#677583"/>
<text x="762" y="311" font-size="12">888</text>
<text x="440" y="336" font-size="12">Unchanged 10102</text>
<rect x="565" y="325" width="78.681" height="13" fill="#677583"/>
<text x="762" y="336" font-size="12">873</text>
<text x="440" y="361" font-size="12">Unchanged 10103</text>
<rect x="565" y="350" width="91.036" height="13" fill="#677583"/>
<text x="762" y="361" font-size="12">1.01e+03</text>
<text x="440" y="386" font-size="12">Analytic</text>
<rect x="565" y="375" width="3.312" height="13" fill="#087f6d"/>
<text x="762" y="386" font-size="12">36.8</text>
<line x1="565" x2="755" y1="402" y2="402" stroke="#87939f"/>
<text x="565" y="419" font-size="11">0</text>
<text x="755" y="419" font-size="11">2.11e+03</text>
<text x="850" y="137" font-size="14">Paid controller seconds / search</text>
<text x="850" y="161" font-size="12">Bellman 10101</text>
<rect x="975" y="150" width="81.778" height="13" fill="#7550a3"/>
<text x="1172" y="161" font-size="12">0.457</text>
<text x="850" y="186" font-size="12">Bellman 10102</text>
<rect x="975" y="175" width="61.168" height="13" fill="#7550a3"/>
<text x="1172" y="186" font-size="12">0.342</text>
<text x="850" y="211" font-size="12">Bellman 10103</text>
<rect x="975" y="200" width="59.720" height="13" fill="#7550a3"/>
<text x="1172" y="211" font-size="12">0.333</text>
<text x="850" y="236" font-size="12">Monte Carlo 10101</text>
<rect x="975" y="225" width="99.639" height="13" fill="#286caa"/>
<text x="1172" y="236" font-size="12">0.556</text>
<text x="850" y="261" font-size="12">Monte Carlo 10102</text>
<rect x="975" y="250" width="85.593" height="13" fill="#286caa"/>
<text x="1172" y="261" font-size="12">0.478</text>
<text x="850" y="286" font-size="12">Monte Carlo 10103</text>
<rect x="975" y="275" width="94.630" height="13" fill="#286caa"/>
<text x="1172" y="286" font-size="12">0.528</text>
<text x="850" y="311" font-size="12">Unchanged 10101</text>
<rect x="975" y="300" width="74.085" height="13" fill="#677583"/>
<text x="1172" y="311" font-size="12">0.414</text>
<text x="850" y="336" font-size="12">Unchanged 10102</text>
<rect x="975" y="325" width="72.865" height="13" fill="#677583"/>
<text x="1172" y="336" font-size="12">0.407</text>
<text x="850" y="361" font-size="12">Unchanged 10103</text>
<rect x="975" y="350" width="84.722" height="13" fill="#677583"/>
<text x="1172" y="361" font-size="12">0.473</text>
<text x="850" y="386" font-size="12">Analytic</text>
<rect x="975" y="375" width="2.144" height="13" fill="#087f6d"/>
<text x="1172" y="386" font-size="12">0.012</text>
<line x1="975" x2="1165" y1="402" y2="402" stroke="#87939f"/>
<text x="975" y="419" font-size="11">0</text>
<text x="1165" y="419" font-size="11">1.06</text>
<text x="30" y="450" font-size="18">lambda4: training-supported setting</text>
<text x="30" y="477" font-size="14">Weighted success (%)</text>
<text x="30" y="501" font-size="12">Bellman 10101</text>
<rect x="155" y="490" width="60.229" height="13" fill="#7550a3"/>
<text x="352" y="501" font-size="12">31.7</text>
<text x="30" y="526" font-size="12">Bellman 10102</text>
<rect x="155" y="515" width="98.310" height="13" fill="#7550a3"/>
<text x="352" y="526" font-size="12">51.7</text>
<text x="30" y="551" font-size="12">Bellman 10103</text>
<rect x="155" y="540" width="68.224" height="13" fill="#7550a3"/>
<text x="352" y="551" font-size="12">35.9</text>
<text x="30" y="576" font-size="12">Monte Carlo 10101</text>
<rect x="155" y="565" width="19.094" height="13" fill="#286caa"/>
<text x="352" y="576" font-size="12">10</text>
<text x="30" y="601" font-size="12">Monte Carlo 10102</text>
<rect x="155" y="590" width="32.599" height="13" fill="#286caa"/>
<text x="352" y="601" font-size="12">17.2</text>
<text x="30" y="626" font-size="12">Monte Carlo 10103</text>
<rect x="155" y="615" width="32.187" height="13" fill="#286caa"/>
<text x="352" y="626" font-size="12">16.9</text>
<text x="30" y="651" font-size="12">Unchanged 10101</text>
<rect x="155" y="640" width="51.006" height="13" fill="#677583"/>
<text x="352" y="651" font-size="12">26.8</text>
<text x="30" y="676" font-size="12">Unchanged 10102</text>
<rect x="155" y="665" width="48.551" height="13" fill="#677583"/>
<text x="352" y="676" font-size="12">25.6</text>
<text x="30" y="701" font-size="12">Unchanged 10103</text>
<rect x="155" y="690" width="58.795" height="13" fill="#677583"/>
<text x="352" y="701" font-size="12">30.9</text>
<text x="30" y="726" font-size="12">Analytic</text>
<rect x="155" y="715" width="190.000" height="13" fill="#087f6d"/>
<text x="352" y="726" font-size="12">100</text>
<line x1="155" x2="345" y1="742" y2="742" stroke="#87939f"/>
<text x="155" y="759" font-size="11">0</text>
<text x="345" y="759" font-size="11">100</text>
<text x="440" y="477" font-size="14">Capped moves (lower is better)</text>
<text x="440" y="501" font-size="12">Bellman 10101</text>
<rect x="565" y="490" width="135.545" height="13" fill="#7550a3"/>
<text x="762" y="501" font-size="12">1.5e+03</text>
<text x="440" y="526" font-size="12">Bellman 10102</text>
<rect x="565" y="515" width="97.711" height="13" fill="#7550a3"/>
<text x="762" y="526" font-size="12">1.08e+03</text>
<text x="440" y="551" font-size="12">Bellman 10103</text>
<rect x="565" y="540" width="128.671" height="13" fill="#7550a3"/>
<text x="762" y="551" font-size="12">1.43e+03</text>
<text x="440" y="576" font-size="12">Monte Carlo 10101</text>
<rect x="565" y="565" width="177.570" height="13" fill="#286caa"/>
<text x="762" y="576" font-size="12">1.97e+03</text>
<text x="440" y="601" font-size="12">Monte Carlo 10102</text>
<rect x="565" y="590" width="163.899" height="13" fill="#286caa"/>
<text x="762" y="601" font-size="12">1.82e+03</text>
<text x="440" y="626" font-size="12">Monte Carlo 10103</text>
<rect x="565" y="615" width="164.283" height="13" fill="#286caa"/>
<text x="762" y="626" font-size="12">1.82e+03</text>
<text x="440" y="651" font-size="12">Unchanged 10101</text>
<rect x="565" y="640" width="145.506" height="13" fill="#677583"/>
<text x="762" y="651" font-size="12">1.61e+03</text>
<text x="440" y="676" font-size="12">Unchanged 10102</text>
<rect x="565" y="665" width="149.330" height="13" fill="#677583"/>
<text x="762" y="676" font-size="12">1.66e+03</text>
<text x="440" y="701" font-size="12">Unchanged 10103</text>
<rect x="565" y="690" width="137.086" height="13" fill="#677583"/>
<text x="762" y="701" font-size="12">1.52e+03</text>
<text x="440" y="726" font-size="12">Analytic</text>
<rect x="565" y="715" width="5.196" height="13" fill="#087f6d"/>
<text x="762" y="726" font-size="12">57.7</text>
<line x1="565" x2="755" y1="742" y2="742" stroke="#87939f"/>
<text x="565" y="759" font-size="11">0</text>
<text x="755" y="759" font-size="11">2.11e+03</text>
<text x="850" y="477" font-size="14">Paid controller seconds / search</text>
<text x="850" y="501" font-size="12">Bellman 10101</text>
<rect x="975" y="490" width="136.310" height="13" fill="#7550a3"/>
<text x="1172" y="501" font-size="12">0.761</text>
<text x="850" y="526" font-size="12">Bellman 10102</text>
<rect x="975" y="515" width="95.919" height="13" fill="#7550a3"/>
<text x="1172" y="526" font-size="12">0.536</text>
<text x="850" y="551" font-size="12">Bellman 10103</text>
<rect x="975" y="540" width="127.716" height="13" fill="#7550a3"/>
<text x="1172" y="551" font-size="12">0.713</text>
<text x="850" y="576" font-size="12">Monte Carlo 10101</text>
<rect x="975" y="565" width="177.570" height="13" fill="#286caa"/>
<text x="1172" y="576" font-size="12">0.991</text>
<text x="850" y="601" font-size="12">Monte Carlo 10102</text>
<rect x="975" y="590" width="162.516" height="13" fill="#286caa"/>
<text x="1172" y="601" font-size="12">0.907</text>
<text x="850" y="626" font-size="12">Monte Carlo 10103</text>
<rect x="975" y="615" width="164.044" height="13" fill="#286caa"/>
<text x="1172" y="626" font-size="12">0.916</text>
<text x="850" y="651" font-size="12">Unchanged 10101</text>
<rect x="975" y="640" width="146.246" height="13" fill="#677583"/>
<text x="1172" y="651" font-size="12">0.817</text>
<text x="850" y="676" font-size="12">Unchanged 10102</text>
<rect x="975" y="665" width="150.530" height="13" fill="#677583"/>
<text x="1172" y="676" font-size="12">0.84</text>
<text x="850" y="701" font-size="12">Unchanged 10103</text>
<rect x="975" y="690" width="138.211" height="13" fill="#677583"/>
<text x="1172" y="701" font-size="12">0.772</text>
<text x="850" y="726" font-size="12">Analytic</text>
<rect x="975" y="715" width="3.659" height="13" fill="#087f6d"/>
<text x="1172" y="726" font-size="12">0.0204</text>
<line x1="975" x2="1165" y1="742" y2="742" stroke="#87939f"/>
<text x="975" y="759" font-size="11">0</text>
<text x="1165" y="759" font-size="11">1.06</text>
<text x="30" y="790" font-size="18">lambda5: unseen supplied kernel</text>
<text x="30" y="817" font-size="14">Weighted success (%)</text>
<text x="30" y="841" font-size="12">Bellman 10101</text>
<rect x="155" y="830" width="69.167" height="13" fill="#7550a3"/>
<text x="352" y="841" font-size="12">36.4</text>
<text x="30" y="866" font-size="12">Bellman 10102</text>
<rect x="155" y="855" width="91.551" height="13" fill="#7550a3"/>
<text x="352" y="866" font-size="12">48.2</text>
<text x="30" y="891" font-size="12">Bellman 10103</text>
<rect x="155" y="880" width="59.399" height="13" fill="#7550a3"/>
<text x="352" y="891" font-size="12">31.3</text>
<text x="30" y="916" font-size="12">Monte Carlo 10101</text>
<rect x="155" y="905" width="41.945" height="13" fill="#286caa"/>
<text x="352" y="916" font-size="12">22.1</text>
<text x="30" y="941" font-size="12">Monte Carlo 10102</text>
<rect x="155" y="930" width="50.830" height="13" fill="#286caa"/>
<text x="352" y="941" font-size="12">26.8</text>
<text x="30" y="966" font-size="12">Monte Carlo 10103</text>
<rect x="155" y="955" width="62.592" height="13" fill="#286caa"/>
<text x="352" y="966" font-size="12">32.9</text>
<text x="30" y="991" font-size="12">Unchanged 10101</text>
<rect x="155" y="980" width="84.975" height="13" fill="#677583"/>
<text x="352" y="991" font-size="12">44.7</text>
<text x="30" y="1016" font-size="12">Unchanged 10102</text>
<rect x="155" y="1005" width="86.342" height="13" fill="#677583"/>
<text x="352" y="1016" font-size="12">45.4</text>
<text x="30" y="1041" font-size="12">Unchanged 10103</text>
<rect x="155" y="1030" width="73.727" height="13" fill="#677583"/>
<text x="352" y="1041" font-size="12">38.8</text>
<text x="30" y="1066" font-size="12">Analytic</text>
<rect x="155" y="1055" width="190.000" height="13" fill="#087f6d"/>
<text x="352" y="1066" font-size="12">100</text>
<line x1="155" x2="345" y1="1082" y2="1082" stroke="#87939f"/>
<text x="155" y="1099" font-size="11">0</text>
<text x="345" y="1099" font-size="11">100</text>
<text x="440" y="817" font-size="14">Capped moves (lower is better)</text>
<text x="440" y="841" font-size="12">Bellman 10101</text>
<rect x="565" y="830" width="128.350" height="13" fill="#7550a3"/>
<text x="762" y="841" font-size="12">1.42e+03</text>
<text x="440" y="866" font-size="12">Bellman 10102</text>
<rect x="565" y="855" width="105.628" height="13" fill="#7550a3"/>
<text x="762" y="866" font-size="12">1.17e+03</text>
<text x="440" y="891" font-size="12">Bellman 10103</text>
<rect x="565" y="880" width="137.618" height="13" fill="#7550a3"/>
<text x="762" y="891" font-size="12">1.53e+03</text>
<text x="440" y="916" font-size="12">Monte Carlo 10101</text>
<rect x="565" y="905" width="154.569" height="13" fill="#286caa"/>
<text x="762" y="916" font-size="12">1.72e+03</text>
<text x="440" y="941" font-size="12">Monte Carlo 10102</text>
<rect x="565" y="930" width="145.106" height="13" fill="#286caa"/>
<text x="762" y="941" font-size="12">1.61e+03</text>
<text x="440" y="966" font-size="12">Monte Carlo 10103</text>
<rect x="565" y="955" width="133.591" height="13" fill="#286caa"/>
<text x="762" y="966" font-size="12">1.48e+03</text>
<text x="440" y="991" font-size="12">Unchanged 10101</text>
<rect x="565" y="980" width="110.612" height="13" fill="#677583"/>
<text x="762" y="991" font-size="12">1.23e+03</text>
<text x="440" y="1016" font-size="12">Unchanged 10102</text>
<rect x="565" y="1005" width="108.677" height="13" fill="#677583"/>
<text x="762" y="1016" font-size="12">1.21e+03</text>
<text x="440" y="1041" font-size="12">Unchanged 10103</text>
<rect x="565" y="1030" width="121.963" height="13" fill="#677583"/>
<text x="762" y="1041" font-size="12">1.35e+03</text>
<text x="440" y="1066" font-size="12">Analytic</text>
<rect x="565" y="1055" width="3.863" height="13" fill="#087f6d"/>
<text x="762" y="1066" font-size="12">42.9</text>
<line x1="565" x2="755" y1="1082" y2="1082" stroke="#87939f"/>
<text x="565" y="1099" font-size="11">0</text>
<text x="755" y="1099" font-size="11">2.11e+03</text>
<text x="850" y="817" font-size="14">Paid controller seconds / search</text>
<text x="850" y="841" font-size="12">Bellman 10101</text>
<rect x="975" y="830" width="121.614" height="13" fill="#7550a3"/>
<text x="1172" y="841" font-size="12">0.679</text>
<text x="850" y="866" font-size="12">Bellman 10102</text>
<rect x="975" y="855" width="98.935" height="13" fill="#7550a3"/>
<text x="1172" y="866" font-size="12">0.552</text>
<text x="850" y="891" font-size="12">Bellman 10103</text>
<rect x="975" y="880" width="130.587" height="13" fill="#7550a3"/>
<text x="1172" y="891" font-size="12">0.729</text>
<text x="850" y="916" font-size="12">Monte Carlo 10101</text>
<rect x="975" y="905" width="146.264" height="13" fill="#286caa"/>
<text x="1172" y="916" font-size="12">0.817</text>
<text x="850" y="941" font-size="12">Monte Carlo 10102</text>
<rect x="975" y="930" width="136.684" height="13" fill="#286caa"/>
<text x="1172" y="941" font-size="12">0.763</text>
<text x="850" y="966" font-size="12">Monte Carlo 10103</text>
<rect x="975" y="955" width="126.307" height="13" fill="#286caa"/>
<text x="1172" y="966" font-size="12">0.705</text>
<text x="850" y="991" font-size="12">Unchanged 10101</text>
<rect x="975" y="980" width="105.410" height="13" fill="#677583"/>
<text x="1172" y="991" font-size="12">0.589</text>
<text x="850" y="1016" font-size="12">Unchanged 10102</text>
<rect x="975" y="1005" width="103.720" height="13" fill="#677583"/>
<text x="1172" y="1016" font-size="12">0.579</text>
<text x="850" y="1041" font-size="12">Unchanged 10103</text>
<rect x="975" y="1030" width="115.888" height="13" fill="#677583"/>
<text x="1172" y="1041" font-size="12">0.647</text>
<text x="850" y="1066" font-size="12">Analytic</text>
<rect x="975" y="1055" width="2.674" height="13" fill="#087f6d"/>
<text x="1172" y="1066" font-size="12">0.0149</text>
<line x1="975" x2="1165" y1="1082" y2="1082" stroke="#87939f"/>
<text x="975" y="1099" font-size="11">0</text>
<text x="1165" y="1099" font-size="11">1.06</text>
<text x="30" y="1128" font-size="13">Each metric uses the same zero-based scale across all three settings.</text>
<text x="30" y="1150" font-size="13">Initial-hit mixture weighted within each setting; no confidence intervals. Controller cost includes deployment allocation.</text>
</g></svg>